<svg width="481" height="66" viewBox="0 0 481 66" fill="none" xmlns="http://www.w3.org/2000/svg">
<path d="M0 65.2611H15.9424V49.1323L22.6549 41.3942L40.928 65.2611H59.8538L32.2576 30.393L58.735 0H39.3431L15.9424 28.9014V0H0V65.2611Z" fill="#232323"/>
<path d="M118.784 65.2611V0H102.842V65.2611H118.784Z" fill="#232323"/>
<path d="M209.413 65.2611H225.542V0H209.693V41.4874L184.427 0H168.299V65.2611H184.241V23.9602L209.413 65.2611Z" fill="#232323"/>
<path d="M320.243 5.31412V0H280.433V65.2611H286.493V35.3342H313.623V30.0201H286.493V5.31412H320.243Z" fill="#232323"/>
<path d="M375.817 65.2611V0H369.757V65.2611H375.817Z" fill="#232323"/>
<path d="M473.718 65.2611H480.057V0H473.997V56.2178L438.01 0H431.671V65.2611H437.731V9.04333L473.718 65.2611Z" fill="#232323"/>
</svg>
